#!OML:ASF G:\ViconDB\ViconDB\414\test\team2\shane.ASF
:FULLY-SPECIFIED
:DEGREES
444
root 17.1194 16.6854 -14.2031 -194.809 -35.691 -168.396
lowerback 8.9012 -2.32451 3.40883
upperback 3.02667 -3.05681 4.4032
thorax -1.76844 -1.68686 2.96599
lowerneck -17.6834 -3.78701 -9.05661
upperneck 23.5011 -4.69177 5.60258
head 10.8526 -2.47427 2.82115
rclavicle -5.45912e-014 -1.98785e-014
rhumerus -42.1567 -15.9401 -69.385
rradius 20.5767
rwrist 55.1651
rhand -29.3576 -14.1342
rfingers 7.12502
rthumb -2.69704 -44.0969
lclavicle -5.45912e-014 -1.98785e-014
lhumerus -27.996 -21.4143 100.263
lradius 22.0616
lwrist -19.7479
lhand -39.3303 9.01213
lfingers 7.12502
lthumb -12.3221 38.629
rfemur -4.47342 -23.5911 20.6485
rtibia 30.7033
rfoot -20.6408 14.3467
rtoes -2.53878
lfemur 14.9887 -5.31021 -4.43136
ltibia 39.2949
lfoot -7.27613 -34.0164
ltoes -22.4648
445
root 17.0786 16.6994 -14.3242 -195.19 -36.0546 -167.94
lowerback 8.99328 -2.13083 4.11191
upperback 3.22607 -2.75935 4.31687
thorax -1.65352 -1.5403 2.45098
lowerneck -17.6234 -3.96706 -8.88608
upperneck 23.0267 -5.03422 5.93046
head 10.6991 -2.55934 2.85771
rclavicle 2.2618e-014 1.8487e-014
rhumerus -40.698 -15.1187 -71.048
rradius 20.7478
rwrist 53.174
rhand -29.6511 -14.8255
rfingers 7.12502
rthumb -2.98056 -44.7844
lclavicle 2.2618e-014 1.8487e-014
lhumerus -28.6095 -22.5975 100.27
lradius 21.5129
lwrist -19.0937
lhand -39.279 9.36799
lfingers 7.12502
lthumb -12.2727 38.9879
rfemur -3.52707 -23.8312 20.8355
rtibia 30.0943
rfoot -20.7385 14.1765
rtoes -2.57352
lfemur 13.1041 -4.90724 -3.57447
ltibia 42.5557
lfoot -9.4875 -32.9452
ltoes -21.9353
446
root 17.0364 16.7174 -14.4435 -195.145 -36.3799 -167.968
lowerback 9.09647 -1.94582 4.19602
upperback 3.30346 -2.50748 4.31672
thorax -1.63597 -1.41581 2.38002
lowerneck -17.5568 -4.0426 -8.80796
upperneck 22.6691 -5.14692 6.00955
head 10.5653 -2.5831 2.85459
rclavicle 1.21532e-013 -1.15295e-014
rhumerus -39.3598 -15.6363 -71.2328
rradius 20.6227
rwrist 54.2383
rhand -29.9797 -14.7355
rfingers 7.12502
rthumb -3.29789 -44.6897
lclavicle 1.21532e-013 -1.15295e-014
lhumerus -29.3041 -23.1029 100.342
lradius 20.8522
lwrist -19.6823
lhand -39.192 9.41777
lfingers 7.12502
lthumb -12.1888 39.0426
rfemur -2.71901 -24.1737 20.6455
rtibia 29.4375
rfoot -20.8326 14.2483
rtoes -2.65113
lfemur 11.1785 -4.29616 -3.16409
ltibia 45.4597
lfoot -11.8212 -31.3221
ltoes -22.2429
447
root 16.992 16.7375 -14.563 -195.301 -36.6883 -167.973
lowerback 9.15996 -1.79907 4.34488
upperback 3.60497 -2.33494 4.30371
thorax -1.36413 -1.33439 2.25961
lowerneck -17.5655 -4.10071 -8.87707
upperneck 22.0874 -5.20771 6.28986
head 10.3711 -2.56384 2.95419
rclavicle -3.45513e-014 -1.78906e-015
rhumerus -37.4971 -15.4531 -72.1193
rradius 20.5715
rwrist 53.5272
rhand -29.9344 -14.7128
rfingers 7.12502
rthumb -3.25415 -44.6677
lclavicle -3.45513e-014 -1.78906e-015
lhumerus -29.7395 -23.7698 100.368
lradius 20.2947
lwrist -19.7646
lhand -39.1301 10.0096
lfingers 7.12502
lthumb -12.1291 39.6381
rfemur -1.72097 -23.9313 20.4867
rtibia 28.7633
rfoot -20.8243 13.8272
rtoes -2.38881
lfemur 9.48762 -3.57235 -2.73851
ltibia 48.0165
lfoot -13.5896 -29.7451
ltoes -22.7588
448
root 16.9522 16.7674 -14.6822 -195.324 -36.9669 -168.068
lowerback 9.06931 -1.59762 4.32706
upperback 3.87916 -2.10202 4.19429
thorax -1.03445 -1.21652 2.12104
lowerneck -17.6021 -4.16072 -8.76453
upperneck 21.748 -5.35162 6.56869
head 10.2727 -2.577 3.0115
rclavicle -5.11622e-014 3.73715e-014
rhumerus -35.8041 -15.9794 -72.8605
rradius 20.5073
rwrist 53.2
rhand -30.1151 -14.6647
rfingers 7.12502
rthumb -3.42862 -44.6169
lclavicle -5.11622e-014 3.73715e-014
lhumerus -30.1048 -24.1746 100.072
lradius 19.5702
lwrist -19.9242
lhand -38.8946 9.10542
lfingers 7.12502
lthumb -11.902 38.7471
rfemur -0.875194 -23.2338 20.4393
rtibia 28.1095
rfoot -20.7356 13.0466
rtoes -2.00918
lfemur 7.81335 -2.89908 -2.44303
ltibia 50.1626
lfoot -15.0018 -28.1027
ltoes -22.3989
449
root 16.906 16.7757 -14.7936 -195.216 -37.2212 -168.436
lowerback 8.98742 -1.45927 4.17753
upperback 4.2027 -1.97027 4.088
thorax -0.653337 -1.15178 2.07054
lowerneck -17.6588 -4.15664 -8.50654
upperneck 21.2766 -5.29775 6.3542
head 10.096 -2.53849 2.89542
rclavicle -1.53176e-013 -1.39149e-015
rhumerus -33.9099 -16.7239 -73.2648
rradius 20.2411
rwrist 54.4873
rhand -30.4224 -14.8843
rfingers 7.12502
rthumb -3.72533 -44.8315
lclavicle -1.53176e-013 -1.39149e-015
lhumerus -30.4303 -24.0001 99.7539
lradius 19.1315
lwrist -20.4238
lhand -38.6823 9.57917
lfingers 7.12502
lthumb -11.6973 39.2326
rfemur 0.140114 -23.3574 19.9875
rtibia 27.4525
rfoot -21.0939 12.6126
rtoes -2.93615
lfemur 6.23259 -2.10003 -2.42229
ltibia 52.0273
lfoot -15.9408 -26.6196
ltoes -21.8775
450
root 16.8653 16.7933 -14.9147 -195.269 -37.3561 -168.574
lowerback 8.90399 -1.19684 4.07551
upperback 4.52492 -1.6679 3.96672
thorax -0.275587 -1.00103 1.96403
lowerneck -17.9548 -4.18859 -7.84301
upperneck 21.149 -5.41258 6.07587
head 10.0871 -2.55585 2.66523
rclavicle 4.01421e-014 -4.57205e-015
rhumerus -32.1017 -17.5113 -73.9964
rradius 20.1935
rwrist 54.7458
rhand -30.5981 -15.1079
rfingers 7.12502
rthumb -3.89502 -45.052
lclavicle 4.01421e-014 -4.57205e-015
lhumerus -30.9675 -24.6192 99.4908
lradius 18.6897
lwrist -20.6159
lhand -38.3284 9.36183
lfingers 7.12502
lthumb -11.356 39.0344
rfemur 1.02359 -22.685 19.9034
rtibia 26.8293
rfoot -20.9865 12.044
rtoes -2.46707
lfemur 4.80458 -1.3043 -2.17498
ltibia 53.5094
lfoot -16.9645 -25.1629
ltoes -20.8972
